<svg width="16" height="19" viewBox="0 0 16 19" fill="none" xmlns="http://www.w3.org/2000/svg">
<path fill-rule="evenodd" clip-rule="evenodd" d="M8.97404 18.5413C11.0898 17.0976 15.9167 13.3048 15.9167 8.74992C15.9167 4.37766 12.3723 0.833252 8 0.833252C3.62775 0.833252 0.083334 4.37766 0.083334 8.74992C0.083334 13.3048 4.91025 17.0976 7.02596 18.5413C7.61759 18.945 8.38241 18.945 8.97404 18.5413ZM8 11.2499C9.38071 11.2499 10.5 10.1306 10.5 8.74992C10.5 7.36921 9.38071 6.24992 8 6.24992C6.61929 6.24992 5.5 7.36921 5.5 8.74992C5.5 10.1306 6.61929 11.2499 8 11.2499Z" fill="#898989"/>
</svg>
