<svg width="20" height="20" viewBox="0 0 20 20" fill="none" xmlns="http://www.w3.org/2000/svg">
<path d="M13.4307 13.0668L12.9152 13.8401C12.8123 13.9944 12.6762 14.1261 12.4969 14.1735C11.9095 14.3287 10.3499 14.3988 7.9755 12.0244C5.60111 9.65004 5.67119 8.09046 5.82641 7.50302C5.8738 7.32368 6.00549 7.1876 6.15983 7.0847L6.93308 6.5692C7.50878 6.1854 7.66435 5.40757 7.28055 4.83187L5.82014 2.64126C5.48514 2.13876 4.83933 1.94678 4.28423 2.18468L3.62544 2.46702C3.12498 2.6815 2.71674 3.06643 2.47324 3.55343C2.2698 3.96031 2.11213 4.38877 2.09076 4.84317C2.02344 6.27515 2.33743 9.80312 6.26713 13.7328C10.1968 17.6625 13.7248 17.9765 15.1568 17.9092C15.6111 17.8878 16.0396 17.7301 16.4465 17.5267C16.9335 17.2832 17.3184 16.8749 17.5329 16.3745L17.8152 15.7157C18.0531 15.1606 17.8612 14.5148 17.3587 14.1798L15.168 12.7194C14.5923 12.3356 13.8145 12.4911 13.4307 13.0668Z" fill="#898989"/>
</svg>
