<svg width="16" height="12" viewBox="0 0 16 12" fill="none" xmlns="http://www.w3.org/2000/svg">
<path d="M15.3652 6.56003L10.3852 11.56C10.2252 11.72 10.0251 11.8 9.82515 11.8C9.62515 11.8 9.42515 11.72 9.26515 11.56C8.94515 11.24 8.94515 10.74 9.26515 10.42L12.8852 6.78003H1.20515C0.765151 6.78003 0.405151 6.42003 0.405151 5.98003C0.405151 5.54003 0.765151 5.18003 1.20515 5.18003H12.8852L9.26515 1.54004C8.94515 1.22004 8.94515 0.720034 9.26515 0.400034C9.58515 0.0800342 10.0852 0.0800342 10.4052 0.400034L15.3852 5.40003C15.6852 5.74003 15.6852 6.26003 15.3652 6.56003Z" fill="black"/>
</svg>
